<svg width="800" height="800" viewBox="0 0 24 24" xmlns="http://www.w3.org/2000/svg"><path d="M20.87 8.009a9.67 9.67 0 0 0-5.236 2.306A7.7 7.7 0 0 0 16 8a9.46 9.46 0 0 0-3.375-6.781 1 1 0 0 0-1.25 0A9.46 9.46 0 0 0 8 8a7.7 7.7 0 0 0 .366 2.315A9.67 9.67 0 0 0 3.13 8.009a1 1 0 0 0-1.119 1.139C2.7 13.871 7.6 18 11 18v4a1 1 0 0 0 2 0v-4c3.419 0 8.218-4.029 8.989-8.852a1 1 0 0 0-1.119-1.139M12 3.391A7.08 7.08 0 0 1 14 8a7.08 7.08 0 0 1-2 4.61A7.08 7.08 0 0 1 10 8a7.08 7.08 0 0 1 2-4.609M4.408 10.33a8.22 8.22 0 0 1 5.183 5.248 8.76 8.76 0 0 1-5.183-5.248m10 5.248a8.22 8.22 0 0 1 5.183-5.248 8.77 8.77 0 0 1-5.182 5.248Z"/></svg>